# Blender v2.93.5 OBJ File: 'models.blend'
# www.blender.org
mtllib squirtle.mtl
o squirtle_starter_1gen_flowalistik
v -0.584492 -0.000000 0.142670
v -0.537340 -0.000000 0.148229
v -0.383448 -0.000000 0.019406
v -0.529547 -0.000000 -0.089858
v -0.510674 -0.000000 0.251870
v -0.407941 -0.000000 0.241958
v -0.370288 -0.000000 0.279772
v -0.215583 -0.000000 0.113284
v -0.284514 -0.000000 -0.166967
v -0.508194 0.065244 -0.065328
v -0.530686 0.072338 0.128657
v -0.308527 0.050485 -0.135500
v -0.387002 0.086218 0.234821
v -0.241637 0.087564 0.121651
v -0.537719 0.293843 -0.069326
v -0.568178 0.330911 0.123561
v -0.386723 0.280271 0.251756
v -0.175399 0.215003 0.187174
v -0.369368 0.252434 -0.128221
v -0.166889 0.173953 -0.082914
v -0.033150 0.064416 0.065881
v -0.496633 0.495418 0.015833
v -0.319307 0.347309 0.225814
v -0.513421 0.382134 -0.055503
v -0.164979 0.296426 0.263727
v -0.549425 0.467496 -0.058034
v -0.555100 0.534775 -0.104301
v -0.628494 1.033057 0.114041
v -0.627416 1.029238 0.209701
v -0.238078 0.321574 -0.366986
v -0.115589 0.248354 -0.355054
v -0.033150 0.262563 -0.367102
v -0.033150 0.331883 -0.413542
v -0.417589 1.324502 0.046574
v -0.428167 1.304735 0.167194
v -0.033150 1.419937 -0.078407
v -0.033150 1.410110 -0.015739
v -0.385698 1.239640 0.038430
v -0.033150 1.365093 -0.077242
v -0.540175 1.047020 0.102203
v -0.506554 0.551003 -0.125471
v -0.214530 0.380265 -0.338374
v -0.033150 0.352372 -0.401460
v -0.033150 0.720322 -0.547138
v -0.367100 0.768606 -0.418145
v -0.033150 1.218925 -0.382628
v -0.376834 1.076247 -0.312573
v -0.216385 0.304789 -0.684484
v -0.033150 0.324576 -0.522610
v -0.263833 0.571037 -0.823113
v -0.033150 0.562710 -0.567978
v -0.033150 0.686906 -0.888445
v -0.202727 0.354649 -1.032749
v -0.033150 0.373602 -1.131198
v -0.075384 -0.000000 -0.892756
v -0.172602 -0.000000 -0.729049
v -0.033150 -0.000000 -0.677373
v -0.089812 -0.000000 -0.308249
v -0.033150 -0.000000 -0.052767
v -0.150158 0.336905 -0.914741
v -0.194325 0.408443 -0.822320
v -0.242989 0.128239 -0.407560
v -0.033150 1.546402 -0.090031
v -0.303581 1.534342 0.002861
v -0.033150 1.863559 0.044829
v -0.303594 1.797549 0.126573
v -0.033150 1.977980 0.364846
v -0.306058 1.862500 0.385763
v -0.033150 1.810332 0.696730
v -0.394495 1.717795 0.577670
v -0.531213 0.768035 0.124886
v -0.522423 1.025442 0.202974
v -0.266495 1.436009 0.579687
v -0.332498 1.654545 0.611261
v -0.244343 1.606433 0.630578
v -0.213518 1.435274 0.561086
v -0.384668 1.355806 0.641516
v -0.480412 1.452640 0.275793
v -0.033150 1.252909 0.789444
v -0.033150 1.060987 0.553712
v -0.321556 1.148709 0.415961
v -0.585080 1.015310 0.330492
v -0.318291 0.950660 0.486940
v -0.464341 0.809940 0.537237
v -0.209629 0.794566 0.543200
v -0.347362 0.687586 0.581392
v -0.455740 0.646285 0.376377
v -0.290842 0.959822 0.386871
v -0.237513 0.884365 0.436738
v -0.169759 0.811942 0.465250
v -0.152954 0.771585 0.545443
v -0.112273 0.797673 0.493154
v -0.149629 0.720557 0.468223
v -0.199707 0.702755 0.547673
v -0.120805 0.656360 0.477726
v -0.173933 0.633786 0.449123
v -0.171707 0.558048 0.442863
v -0.218947 0.619431 0.520489
v -0.372693 0.519109 0.325228
v -0.033150 0.434616 0.419161
v -0.033150 0.302260 0.291711
v -0.033150 0.593855 0.512455
v -0.298553 1.411755 0.664289
v -0.189548 1.407984 0.705474
v -0.202219 1.631347 0.663595
v -0.033150 -0.000000 -0.892756
v 0.518193 -0.000000 0.142670
v 0.463248 -0.000000 -0.089858
v 0.317149 -0.000000 0.019406
v 0.471040 -0.000000 0.148229
v 0.444375 -0.000000 0.251870
v 0.341642 -0.000000 0.241958
v 0.149284 -0.000000 0.113284
v 0.303988 -0.000000 0.279772
v 0.218214 -0.000000 -0.166967
v 0.464387 0.072338 0.128657
v 0.441895 0.065244 -0.065328
v 0.242228 0.050485 -0.135500
v 0.320703 0.086218 0.234821
v 0.175337 0.087564 0.121651
v 0.501879 0.330911 0.123561
v 0.471420 0.293843 -0.069326
v 0.320424 0.280271 0.251756
v 0.109100 0.215003 0.187174
v 0.303069 0.252434 -0.128221
v 0.100590 0.173953 -0.082914
v 0.253008 0.347309 0.225814
v 0.430334 0.495418 0.015833
v 0.447122 0.382134 -0.055503
v 0.098680 0.296426 0.263727
v 0.483126 0.467496 -0.058034
v 0.561116 1.029238 0.209701
v 0.562194 1.033057 0.114041
v 0.488801 0.534775 -0.104301
v 0.171778 0.321574 -0.366986
v 0.049290 0.248354 -0.355054
v 0.361867 1.304735 0.167194
v 0.351290 1.324502 0.046574
v 0.319399 1.239640 0.038430
v 0.473875 1.047020 0.102203
v 0.440255 0.551003 -0.125471
v 0.148231 0.380265 -0.338374
v 0.300801 0.768606 -0.418145
v 0.310535 1.076247 -0.312573
v 0.150085 0.304789 -0.684484
v 0.197533 0.571037 -0.823113
v 0.136428 0.354649 -1.032749
v 0.009084 -0.000000 -0.892756
v 0.106303 -0.000000 -0.729049
v 0.023512 -0.000000 -0.308249
v 0.083858 0.336905 -0.914741
v 0.128025 0.408443 -0.822320
v 0.176690 0.128239 -0.407560
v 0.237282 1.534342 0.002861
v 0.237295 1.797549 0.126573
v 0.239759 1.862500 0.385763
v 0.328196 1.717795 0.577670
v 0.464914 0.768035 0.124886
v 0.456123 1.025442 0.202974
v 0.200196 1.436009 0.579687
v 0.147218 1.435274 0.561086
v 0.178044 1.606433 0.630578
v 0.266198 1.654545 0.611261
v 0.414112 1.452640 0.275793
v 0.318369 1.355806 0.641516
v 0.255257 1.148709 0.415961
v 0.518781 1.015310 0.330492
v 0.398042 0.809940 0.537237
v 0.251992 0.950660 0.486940
v 0.281063 0.687586 0.581392
v 0.143329 0.794566 0.543200
v 0.389441 0.646285 0.376377
v 0.224543 0.959822 0.386871
v 0.103459 0.811942 0.465250
v 0.171213 0.884365 0.436738
v 0.086655 0.771585 0.545443
v 0.045974 0.797673 0.493154
v 0.133408 0.702755 0.547673
v 0.083330 0.720557 0.468223
v 0.054505 0.656360 0.477726
v 0.107633 0.633786 0.449123
v 0.152648 0.619431 0.520489
v 0.105408 0.558048 0.442863
v 0.306393 0.519109 0.325228
v 0.123249 1.407984 0.705474
v 0.232253 1.411755 0.664289
v 0.135919 1.631347 0.663595
vn 0.0000 1.0000 0.0000
vn 0.9020 -0.3754 0.2131
vn 0.8076 -0.5785 0.1148
vn 0.2736 -0.4117 0.8693
vn 0.2740 -0.4157 0.8672
vn 0.1128 -0.2692 -0.9565
vn 0.9568 -0.1546 -0.2462
vn 0.6905 -0.2246 -0.6876
vn -0.6560 -0.4450 -0.6096
vn -0.6102 -0.1065 -0.7851
vn -0.9271 -0.2976 0.2280
vn -0.7853 -0.5503 0.2836
vn 0.9855 0.1292 0.1095
vn 0.9813 0.1448 0.1271
vn 0.5885 0.0695 -0.8055
vn -0.6132 0.0695 -0.7868
vn -0.1088 0.4987 -0.8599
vn 0.3429 0.0607 0.9374
vn -0.9077 0.3784 0.1815
vn -0.6216 0.7713 -0.1368
vn 0.6879 0.7205 -0.0878
vn 0.3341 -0.6137 -0.7153
vn 0.3347 -0.6134 -0.7153
vn 0.9354 -0.2893 0.2033
vn 0.9394 -0.2712 0.2097
vn 0.2730 -0.2217 0.9361
vn -0.3080 -0.0577 -0.9496
vn 0.3729 0.6098 -0.6994
vn 0.7247 0.2871 -0.6264
vn 0.9910 0.1217 0.0554
vn 0.9901 0.1401 -0.0056
vn 0.7245 0.4310 0.5379
vn 0.7297 0.4353 0.5273
vn 0.4226 0.7817 0.4587
vn 0.0870 0.3004 0.9498
vn 0.1587 0.5495 0.8203
vn 0.8061 -0.5909 -0.0327
vn 0.8081 -0.5884 -0.0256
vn 0.1948 -0.9705 -0.1420
vn 0.1884 -0.9702 -0.1521
vn 0.3040 0.0228 0.9524
vn 0.3052 0.0202 0.9521
vn 0.1081 0.1493 0.9829
vn 0.3406 0.0379 0.9394
vn 0.4634 -0.2975 0.8347
vn 0.1836 -0.3998 0.8980
vn 0.3145 -0.5149 0.7975
vn 0.4593 -0.2698 0.8463
vn 0.2160 -0.4960 0.8410
vn 0.2160 -0.4965 0.8407
vn 0.3552 0.3441 0.8691
vn 0.3813 0.3274 0.8645
vn 0.3061 -0.2983 0.9041
vn 0.3085 -0.3000 0.9027
vn 0.4197 -0.8187 0.3919
vn 0.4199 -0.8187 0.3917
vn 0.9257 -0.1042 0.3636
vn 0.9286 -0.0938 0.3591
vn 0.7925 -0.5450 0.2737
vn 0.6807 0.3943 0.6175
vn 0.1366 -0.9686 -0.2077
vn 0.3931 -0.8541 -0.3406
vn 0.6557 -0.2535 -0.7112
vn 0.7337 -0.1272 -0.6675
vn 0.3437 -0.8756 -0.3393
vn 0.4697 -0.5423 0.6967
vn 0.4665 -0.5418 0.6992
vn 0.4074 0.4581 0.7900
vn 0.7949 0.5806 -0.1763
vn 0.7810 0.5488 -0.2980
vn 0.8390 0.2187 0.4982
vn 0.9531 0.0949 0.2874
vn 0.9351 0.1948 0.2961
vn 0.8397 0.3609 0.4058
vn 0.9110 0.3901 0.1334
vn 0.8132 0.5068 -0.2861
vn 0.9087 0.1770 -0.3782
vn 0.7162 -0.6176 -0.3249
vn 0.9789 0.1161 0.1680
vn 0.6860 0.7149 -0.1350
vn 0.7132 0.6514 -0.2589
vn 0.6983 -0.7130 -0.0633
vn 0.2849 0.9096 0.3024
vn 0.6238 0.2847 0.7279
vn 0.2687 0.4610 0.8457
vn 0.2702 0.4591 0.8463
vn 0.3164 -0.3712 0.8730
vn 0.3531 -0.3980 0.8467
vn 0.3147 -0.8938 0.3196
vn 0.3942 -0.8906 0.2269
vn 0.3246 -0.8443 -0.4265
vn 0.3580 -0.8174 -0.4513
vn 0.4988 0.4284 -0.7535
vn 0.6995 0.3401 -0.6285
vn -0.0674 -0.1044 -0.9923
vn -0.0507 0.2915 -0.9552
vn 0.3269 0.2311 -0.9163
vn -0.3113 0.3088 -0.8987
vn 0.9660 -0.0193 -0.2580
vn 0.9046 -0.4131 0.1054
vn 0.8470 -0.2261 0.4811
vn 0.9031 -0.4144 0.1124
vn 0.4420 0.6956 -0.5664
vn 0.4669 0.7126 -0.5237
vn 0.9017 0.4133 -0.1272
vn 0.2991 -0.5867 -0.7525
vn 0.3014 -0.5826 -0.7548
vn 0.0016 -0.3381 -0.9411
vn 0.9234 0.2927 -0.2484
vn 0.9406 0.3134 -0.1305
vn 0.8780 -0.2435 0.4121
vn 0.8910 -0.1594 0.4251
vn -0.8223 -0.5002 -0.2714
vn 0.7141 0.5095 -0.4801
vn -0.7457 -0.6131 -0.2607
vn -0.5750 -0.6934 -0.4342
vn -0.5611 -0.6993 -0.4429
vn 0.9610 0.1988 -0.1922
vn -0.3372 -0.8674 -0.3659
vn -0.0039 -0.8936 -0.4489
vn -0.7869 0.4987 -0.3634
vn -0.7733 0.5132 -0.3724
vn -0.7281 -0.4084 -0.5505
vn -0.0344 0.8146 -0.5790
vn -0.9688 -0.0080 -0.2478
vn -0.6361 0.3681 -0.6782
vn 0.3584 0.8260 -0.4350
vn 0.3088 0.8875 -0.3420
vn -0.2152 -0.0707 -0.9740
vn -0.2426 0.3511 -0.9044
vn 0.0207 -0.0464 -0.9987
vn 0.8121 0.2156 -0.5423
vn 0.9398 0.1959 -0.2799
vn 0.7214 0.6059 -0.3354
vn 0.8112 0.4606 -0.3602
vn 0.3464 0.5366 -0.7695
vn 0.3467 0.5360 -0.7698
vn 0.1213 0.6885 -0.7150
vn 0.1254 0.6710 -0.7308
vn 0.4496 0.0697 -0.8905
vn 0.4483 0.0702 -0.8911
vn 0.4496 0.0701 -0.8905
vn 0.4434 0.0868 -0.8921
vn 0.4263 0.0982 -0.8992
vn 0.4160 0.0800 -0.9059
vn 0.3620 0.5228 -0.7718
vn 0.3469 0.5482 -0.7610
vn 0.2897 0.4838 -0.8258
vn 0.3446 -0.1534 -0.9261
vn 0.3447 -0.1538 -0.9260
vn 0.3446 -0.1540 -0.9260
vn 0.3446 -0.1541 -0.9260
vn 0.3449 -0.1540 -0.9259
vn 0.3447 -0.1540 -0.9260
vn 0.3445 -0.1540 -0.9261
vn 0.0623 -0.9654 -0.2532
vn -0.0744 -0.9821 -0.1733
vn -0.8922 -0.2118 -0.3988
vn 0.4020 0.4072 -0.8201
vn 0.9869 0.0262 -0.1589
vn 0.4031 0.4057 -0.8204
vn 0.4494 0.0698 -0.8906
vn 0.4477 0.0723 -0.8913
vn 0.0000 0.5380 0.8430
vn 0.1099 0.6844 -0.7208
vn 0.9023 0.4120 -0.1271
vn 0.8476 -0.0851 0.5237
vn 0.3352 0.0671 0.9397
vn -0.2583 -0.1124 0.9595
vn -0.0959 -0.0590 -0.9936
vn 0.4452 -0.7387 -0.5060
vn -0.8076 -0.5785 0.1148
vn -0.9020 -0.3754 0.2131
vn -0.2740 -0.4157 0.8672
vn -0.2736 -0.4117 0.8693
vn -0.1128 -0.2692 -0.9565
vn -0.9568 -0.1546 -0.2462
vn -0.6905 -0.2246 -0.6876
vn 0.6102 -0.1065 -0.7851
vn 0.6560 -0.4450 -0.6096
vn 0.7853 -0.5503 0.2836
vn 0.9271 -0.2976 0.2280
vn -0.9813 0.1448 0.1271
vn -0.9855 0.1292 0.1095
vn -0.5885 0.0695 -0.8055
vn 0.1088 0.4987 -0.8599
vn 0.6132 0.0695 -0.7868
vn -0.3429 0.0607 0.9374
vn 0.6216 0.7713 -0.1368
vn 0.9077 0.3784 0.1815
vn -0.6879 0.7205 -0.0878
vn -0.3347 -0.6134 -0.7153
vn -0.3341 -0.6137 -0.7153
vn -0.9394 -0.2712 0.2097
vn -0.9354 -0.2893 0.2033
vn -0.2730 -0.2217 0.9361
vn -0.3729 0.6098 -0.6994
vn 0.3080 -0.0577 -0.9496
vn -0.7247 0.2871 -0.6264
vn -0.9901 0.1401 -0.0056
vn -0.9910 0.1217 0.0554
vn -0.7297 0.4353 0.5273
vn -0.7245 0.4310 0.5379
vn -0.4226 0.7817 0.4587
vn -0.1587 0.5495 0.8203
vn -0.0870 0.3004 0.9498
vn -0.8081 -0.5884 -0.0256
vn -0.8061 -0.5909 -0.0327
vn -0.1884 -0.9702 -0.1521
vn -0.1948 -0.9705 -0.1420
vn -0.3052 0.0202 0.9521
vn -0.3040 0.0228 0.9524
vn -0.3406 0.0379 0.9394
vn -0.1081 0.1493 0.9829
vn -0.1836 -0.3998 0.8980
vn -0.4634 -0.2975 0.8347
vn -0.4593 -0.2698 0.8463
vn -0.3145 -0.5149 0.7975
vn -0.2160 -0.4965 0.8407
vn -0.2160 -0.4960 0.8410
vn -0.3813 0.3274 0.8645
vn -0.3552 0.3441 0.8691
vn -0.3085 -0.3000 0.9027
vn -0.3061 -0.2983 0.9041
vn -0.4199 -0.8187 0.3917
vn -0.4197 -0.8187 0.3919
vn -0.9286 -0.0938 0.3591
vn -0.9257 -0.1042 0.3636
vn -0.7925 -0.5450 0.2737
vn -0.6807 0.3943 0.6175
vn -0.3931 -0.8541 -0.3406
vn -0.1366 -0.9686 -0.2077
vn -0.7337 -0.1272 -0.6675
vn -0.6557 -0.2535 -0.7112
vn -0.3437 -0.8756 -0.3393
vn -0.4665 -0.5418 0.6992
vn -0.4697 -0.5423 0.6967
vn -0.4074 0.4581 0.7900
vn -0.7810 0.5488 -0.2980
vn -0.7949 0.5806 -0.1763
vn -0.9531 0.0949 0.2874
vn -0.8390 0.2187 0.4982
vn -0.9351 0.1948 0.2961
vn -0.8397 0.3609 0.4058
vn -0.9110 0.3901 0.1334
vn -0.8132 0.5068 -0.2861
vn -0.9087 0.1770 -0.3782
vn -0.7162 -0.6176 -0.3249
vn -0.9789 0.1161 0.1680
vn -0.7132 0.6514 -0.2589
vn -0.6860 0.7149 -0.1350
vn -0.2849 0.9096 0.3024
vn -0.6983 -0.7130 -0.0633
vn -0.6238 0.2847 0.7279
vn -0.2702 0.4591 0.8463
vn -0.2687 0.4610 0.8457
vn -0.3531 -0.3980 0.8467
vn -0.3164 -0.3712 0.8730
vn -0.3942 -0.8906 0.2269
vn -0.3147 -0.8938 0.3196
vn -0.3580 -0.8174 -0.4513
vn -0.3246 -0.8443 -0.4265
vn -0.6995 0.3401 -0.6285
vn -0.4988 0.4284 -0.7535
vn 0.0507 0.2915 -0.9552
vn 0.0674 -0.1044 -0.9923
vn 0.3113 0.3088 -0.8987
vn -0.3269 0.2311 -0.9163
vn -0.9046 -0.4131 0.1054
vn -0.9660 -0.0193 -0.2580
vn -0.8470 -0.2261 0.4811
vn -0.9031 -0.4144 0.1124
vn -0.4669 0.7126 -0.5237
vn -0.4420 0.6956 -0.5664
vn -0.9017 0.4133 -0.1272
vn -0.3014 -0.5826 -0.7548
vn -0.2991 -0.5867 -0.7525
vn -0.0016 -0.3381 -0.9411
vn -0.9406 0.3134 -0.1305
vn -0.9234 0.2927 -0.2484
vn -0.8910 -0.1594 0.4251
vn -0.8780 -0.2435 0.4121
vn 0.8223 -0.5002 -0.2714
vn -0.7141 0.5095 -0.4801
vn 0.5611 -0.6993 -0.4429
vn 0.5750 -0.6934 -0.4342
vn 0.7457 -0.6131 -0.2607
vn -0.9610 0.1988 -0.1922
vn 0.0039 -0.8936 -0.4489
vn 0.3372 -0.8674 -0.3659
vn 0.7733 0.5132 -0.3724
vn 0.7869 0.4987 -0.3634
vn 0.7281 -0.4084 -0.5505
vn 0.0344 0.8146 -0.5790
vn 0.6361 0.3681 -0.6782
vn 0.9688 -0.0080 -0.2478
vn -0.3088 0.8875 -0.3420
vn -0.3584 0.8260 -0.4350
vn 0.2152 -0.0707 -0.9740
vn 0.2426 0.3511 -0.9044
vn -0.0207 -0.0464 -0.9987
vn -0.9398 0.1959 -0.2799
vn -0.8121 0.2156 -0.5423
vn -0.8112 0.4606 -0.3602
vn -0.7214 0.6059 -0.3354
vn -0.3467 0.5360 -0.7698
vn -0.3464 0.5366 -0.7695
vn -0.1213 0.6885 -0.7150
vn -0.1254 0.6710 -0.7308
vn -0.4496 0.0697 -0.8905
vn -0.4496 0.0701 -0.8905
vn -0.4483 0.0702 -0.8911
vn -0.4263 0.0982 -0.8992
vn -0.4434 0.0868 -0.8921
vn -0.4160 0.0800 -0.9059
vn -0.3469 0.5482 -0.7610
vn -0.3620 0.5228 -0.7718
vn -0.2897 0.4838 -0.8258
vn -0.3447 -0.1538 -0.9260
vn -0.3446 -0.1534 -0.9261
vn -0.3446 -0.1541 -0.9260
vn -0.3446 -0.1540 -0.9260
vn -0.3447 -0.1540 -0.9260
vn -0.3449 -0.1540 -0.9259
vn -0.3445 -0.1540 -0.9261
vn 0.0744 -0.9821 -0.1733
vn -0.0623 -0.9654 -0.2532
vn 0.8922 -0.2118 -0.3988
vn -0.4020 0.4072 -0.8201
vn -0.4031 0.4057 -0.8204
vn -0.9869 0.0262 -0.1589
vn -0.4477 0.0723 -0.8913
vn -0.4494 0.0698 -0.8906
vn -0.1099 0.6844 -0.7208
vn -0.9023 0.4120 -0.1271
vn -0.8476 -0.0851 0.5237
vn -0.3352 0.0671 0.9397
vn 0.2583 -0.1124 0.9595
vn 0.0959 -0.0590 -0.9936
vn -0.4452 -0.7387 -0.5060
usemtl None
s off
f 1//1 2//1 3//1
f 3//1 4//1 1//1
f 2//1 5//1 3//1
f 5//1 6//1 3//1
f 6//1 7//1 8//1
f 8//1 3//1 6//1
f 3//1 8//1 9//1
f 4//1 3//1 9//1
f 1//2 4//2 10//2
f 10//3 11//3 1//3
f 4//4 9//4 12//4
f 12//5 10//5 4//5
f 2//6 1//6 11//6
f 5//7 2//7 11//7
f 7//8 6//8 13//8
f 8//9 7//9 13//9
f 13//10 14//10 8//10
f 9//11 8//11 14//11
f 14//12 12//12 9//12
f 11//13 10//13 15//13
f 15//14 16//14 11//14
f 13//15 11//15 16//15
f 16//15 17//15 13//15
f 14//16 13//16 17//16
f 17//17 18//17 14//17
f 10//18 19//18 15//18
f 12//19 14//19 18//19
f 18//20 20//20 12//20
f 20//21 18//21 21//21
f 17//22 16//22 22//22
f 22//23 23//23 17//23
f 16//24 15//24 24//24
f 24//25 22//25 16//25
f 15//26 19//26 24//26
f 18//27 17//27 23//27
f 23//28 25//28 18//28
f 22//29 24//29 26//29
f 26//30 27//30 28//30
f 28//31 29//31 26//31
f 27//32 26//32 19//32
f 19//33 30//33 27//33
f 19//34 31//34 30//34
f 30//35 31//35 32//35
f 32//36 33//36 30//36
f 29//37 28//37 34//37
f 34//38 35//38 29//38
f 35//39 34//39 36//39
f 36//40 37//40 35//40
f 36//41 34//41 38//41
f 38//42 39//42 36//42
f 34//43 28//43 40//43
f 40//44 38//44 34//44
f 28//45 27//45 41//45
f 41//46 40//46 28//46
f 27//47 30//47 42//47
f 42//48 41//48 27//48
f 30//49 33//49 43//49
f 43//50 42//50 30//50
f 42//51 43//51 44//51
f 44//52 45//52 42//52
f 45//53 44//53 46//53
f 46//54 47//54 45//54
f 47//55 46//55 39//55
f 39//56 38//56 47//56
f 40//57 41//57 45//57
f 45//58 47//58 40//58
f 38//59 40//59 47//59
f 41//60 42//60 45//60
f 32//61 31//61 48//61
f 48//62 49//62 32//62
f 49//63 48//63 50//63
f 50//64 51//64 49//64
f 51//65 50//65 52//65
f 52//66 50//66 53//66
f 53//67 54//67 52//67
f 54//68 53//68 55//68
f 55//1 56//1 57//1
f 57//1 56//1 58//1
f 58//1 59//1 57//1
f 59//69 58//69 20//69
f 20//70 21//70 59//70
f 56//71 55//71 60//71
f 60//72 48//72 56//72
f 48//73 60//73 61//73
f 50//74 48//74 61//74
f 50//75 61//75 60//75
f 53//76 50//76 60//76
f 55//77 53//77 60//77
f 48//78 31//78 62//78
f 56//79 48//79 62//79
f 58//80 56//80 62//80
f 62//81 20//81 58//81
f 20//82 62//82 31//82
f 31//83 19//83 20//83
f 26//84 24//84 19//84
f 35//85 37//85 63//85
f 63//86 64//86 35//86
f 64//87 63//87 65//87
f 65//88 66//88 64//88
f 66//89 65//89 67//89
f 67//90 68//90 66//90
f 68//91 67//91 69//91
f 69//92 70//92 68//92
f 26//93 29//93 71//93
f 71//94 22//94 26//94
f 29//95 35//95 72//95
f 72//96 71//96 29//96
f 73//97 74//97 75//97
f 75//98 76//98 73//98
f 70//99 77//99 78//99
f 78//100 68//100 70//100
f 64//101 66//101 78//101
f 66//102 68//102 78//102
f 77//103 79//103 80//103
f 80//104 81//104 77//104
f 77//105 81//105 35//105
f 82//106 35//106 83//106
f 83//107 84//107 82//107
f 84//108 83//108 85//108
f 85//108 86//108 84//108
f 82//109 84//109 87//109
f 87//110 71//110 82//110
f 72//111 35//111 82//111
f 82//112 71//112 72//112
f 83//113 35//113 88//113
f 84//114 86//114 87//114
f 85//115 83//115 88//115
f 85//116 88//116 89//116
f 85//117 89//117 90//117
f 22//118 71//118 87//118
f 91//119 85//119 90//119
f 90//120 92//120 91//120
f 91//121 92//121 93//121
f 93//122 94//122 91//122
f 93//123 95//123 94//123
f 95//124 96//124 94//124
f 94//125 96//125 97//125
f 97//126 98//126 94//126
f 98//127 97//127 87//127
f 87//128 86//128 98//128
f 86//129 85//129 94//129
f 98//130 86//130 94//130
f 91//131 94//131 85//131
f 81//132 89//132 88//132
f 88//133 35//133 81//133
f 22//134 87//134 99//134
f 99//135 23//135 22//135
f 97//136 100//136 99//136
f 99//137 87//137 97//137
f 25//138 100//138 101//138
f 25//139 101//139 18//139
f 90//140 80//140 92//140
f 92//141 80//141 95//141
f 95//142 93//142 92//142
f 97//143 96//143 95//143
f 95//144 102//144 97//144
f 95//145 80//145 102//145
f 100//146 25//146 23//146
f 23//147 99//147 100//147
f 100//148 97//148 102//148
f 77//149 103//149 104//149
f 104//150 79//150 77//150
f 70//151 69//151 105//151
f 105//152 74//152 70//152
f 74//153 103//153 77//153
f 77//154 70//154 74//154
f 69//155 79//155 104//155
f 104//152 105//152 69//152
f 104//156 103//156 73//156
f 73//157 76//157 104//157
f 103//158 74//158 73//158
f 74//159 105//159 75//159
f 105//160 104//160 76//160
f 76//161 75//161 105//161
f 80//162 90//162 89//162
f 89//163 81//163 80//163
f 55//1 57//1 106//1
f 55//164 106//164 54//164
f 18//165 101//165 21//165
f 78//166 77//166 35//166
f 64//167 78//167 35//167
f 19//168 10//168 12//168
f 20//169 19//169 12//169
f 6//170 5//170 13//170
f 11//171 13//171 5//171
f 107//1 108//1 109//1
f 109//1 110//1 107//1
f 110//1 109//1 111//1
f 111//1 109//1 112//1
f 112//1 109//1 113//1
f 113//1 114//1 112//1
f 109//1 115//1 113//1
f 108//1 115//1 109//1
f 107//172 116//172 117//172
f 117//173 108//173 107//173
f 108//174 117//174 118//174
f 118//175 115//175 108//175
f 110//176 116//176 107//176
f 111//177 116//177 110//177
f 114//178 119//178 112//178
f 113//179 120//179 119//179
f 119//180 114//180 113//180
f 115//181 118//181 120//181
f 120//182 113//182 115//182
f 116//183 121//183 122//183
f 122//184 117//184 116//184
f 119//185 123//185 121//185
f 121//185 116//185 119//185
f 120//186 124//186 123//186
f 123//187 119//187 120//187
f 117//188 122//188 125//188
f 118//189 126//189 124//189
f 124//190 120//190 118//190
f 126//191 21//191 124//191
f 123//192 127//192 128//192
f 128//193 121//193 123//193
f 121//194 128//194 129//194
f 129//195 122//195 121//195
f 122//196 129//196 125//196
f 124//197 130//197 127//197
f 127//198 123//198 124//198
f 128//199 131//199 129//199
f 131//200 132//200 133//200
f 133//201 134//201 131//201
f 134//202 135//202 125//202
f 125//203 131//203 134//203
f 125//204 135//204 136//204
f 135//205 33//205 32//205
f 32//206 136//206 135//206
f 132//207 137//207 138//207
f 138//208 133//208 132//208
f 137//209 37//209 36//209
f 36//210 138//210 137//210
f 36//211 39//211 139//211
f 139//212 138//212 36//212
f 138//213 139//213 140//213
f 140//214 133//214 138//214
f 133//215 140//215 141//215
f 141//216 134//216 133//216
f 134//217 141//217 142//217
f 142//218 135//218 134//218
f 135//219 142//219 43//219
f 43//220 33//220 135//220
f 142//221 143//221 44//221
f 44//222 43//222 142//222
f 143//223 144//223 46//223
f 46//224 44//224 143//224
f 144//225 139//225 39//225
f 39//226 46//226 144//226
f 140//227 144//227 143//227
f 143//228 141//228 140//228
f 139//229 144//229 140//229
f 141//230 143//230 142//230
f 32//231 49//231 145//231
f 145//232 136//232 32//232
f 49//233 51//233 146//233
f 146//234 145//234 49//234
f 51//235 52//235 146//235
f 52//236 54//236 147//236
f 147//237 146//237 52//237
f 54//238 148//238 147//238
f 148//1 57//1 149//1
f 57//1 59//1 150//1
f 150//1 149//1 57//1
f 59//239 21//239 126//239
f 126//240 150//240 59//240
f 149//241 145//241 151//241
f 151//242 148//242 149//242
f 145//243 152//243 151//243
f 146//244 152//244 145//244
f 146//245 151//245 152//245
f 147//246 151//246 146//246
f 148//247 151//247 147//247
f 145//248 153//248 136//248
f 149//249 153//249 145//249
f 150//250 126//250 153//250
f 153//251 149//251 150//251
f 126//252 125//252 136//252
f 136//253 153//253 126//253
f 131//254 125//254 129//254
f 137//255 154//255 63//255
f 63//256 37//256 137//256
f 154//257 155//257 65//257
f 65//258 63//258 154//258
f 155//259 156//259 67//259
f 67//260 65//260 155//260
f 156//261 157//261 69//261
f 69//262 67//262 156//262
f 131//263 128//263 158//263
f 158//264 132//264 131//264
f 132//265 158//265 159//265
f 159//266 137//266 132//266
f 160//267 161//267 162//267
f 162//268 163//268 160//268
f 157//269 156//269 164//269
f 164//270 165//270 157//270
f 154//271 164//271 155//271
f 155//272 164//272 156//272
f 165//273 166//273 80//273
f 80//274 79//274 165//274
f 165//275 137//275 166//275
f 167//276 168//276 169//276
f 169//277 137//277 167//277
f 168//278 170//278 171//278
f 171//278 169//278 168//278
f 167//279 158//279 172//279
f 172//280 168//280 167//280
f 159//281 158//281 167//281
f 167//282 137//282 159//282
f 169//283 173//283 137//283
f 168//284 172//284 170//284
f 171//285 174//285 175//285
f 171//286 175//286 173//286
f 171//287 173//287 169//287
f 128//288 172//288 158//288
f 176//289 177//289 174//289
f 174//290 171//290 176//290
f 176//291 178//291 179//291
f 179//292 177//292 176//292
f 179//293 178//293 180//293
f 180//294 178//294 181//294
f 178//295 182//295 183//295
f 183//296 181//296 178//296
f 182//297 170//297 172//297
f 172//298 183//298 182//298
f 170//299 178//299 171//299
f 182//300 178//300 170//300
f 176//301 171//301 178//301
f 166//302 137//302 173//302
f 173//303 175//303 166//303
f 128//304 127//304 184//304
f 184//305 172//305 128//305
f 183//306 172//306 184//306
f 184//307 100//307 183//307
f 130//308 101//308 100//308
f 130//309 124//309 101//309
f 174//310 177//310 80//310
f 177//311 179//311 180//311
f 180//312 80//312 177//312
f 183//313 102//313 180//313
f 180//314 181//314 183//314
f 180//315 102//315 80//315
f 100//316 184//316 127//316
f 127//317 130//317 100//317
f 100//318 102//318 183//318
f 165//319 79//319 185//319
f 185//320 186//320 165//320
f 157//321 163//321 187//321
f 187//322 69//322 157//322
f 163//323 157//323 165//323
f 165//324 186//324 163//324
f 69//321 187//321 185//321
f 185//325 79//325 69//325
f 185//326 161//326 160//326
f 160//327 186//327 185//327
f 186//328 160//328 163//328
f 163//329 162//329 187//329
f 187//330 162//330 161//330
f 161//331 185//331 187//331
f 80//332 166//332 175//332
f 175//333 174//333 80//333
f 148//1 106//1 57//1
f 148//164 54//164 106//164
f 124//334 21//334 101//334
f 164//335 137//335 165//335
f 154//336 137//336 164//336
f 125//337 118//337 117//337
f 126//338 118//338 125//338
f 112//339 119//339 111//339
f 116//340 111//340 119//340
